<svg xmlns="http://www.w3.org/2000/svg" viewBox="0 0 95 91.6"><path d="M82.9 6.2h-7.2V3.8a3.8 3.8 0 10-7.6 0v2.4H51.3V3.8a3.8 3.8 0 10-7.6 0v2.4H26.8V3.8C26.8 1.7 25.1 0 23 0s-3.7 1.7-3.7 3.8v2.4h-7.2A12 12 0 000 18.3v61.2a12 12 0 0012.1 12.1h70.8A12 12 0 0095 79.5V18.3A12 12 0 0082.9 6.2zm-70.8 7.5h7.2v2.4a3.8 3.8 0 107.6 0v-2.4h16.9v2.4a3.8 3.8 0 107.6 0v-2.4h16.9v2.4a3.8 3.8 0 107.6 0v-2.4h7.2c2.5 0 4.6 2.1 4.6 4.6v7.1H7.5v-7.1c0-2.6 2.1-4.6 4.6-4.6zM82.9 84H12.1a4.7 4.7 0 01-4.6-4.6V32.9h80v46.6c0 2.5-2.1 4.5-4.6 4.5z"/><path d="M28.6 41.2h-9.1a3.1 3.1 0 00-3.1 3.1v7c0 1.7 1.4 3.1 3.1 3.1h9.1c1.7 0 3.1-1.4 3.1-3.1v-7a3 3 0 00-3.1-3.1zM75.5 41.2h-9.1a3.1 3.1 0 00-3.1 3.1v7c0 1.7 1.4 3.1 3.1 3.1h9.1c1.7 0 3.1-1.4 3.1-3.1v-7a3 3 0 00-3.1-3.1zM52.1 41.2H43a3.1 3.1 0 00-3.1 3.1v7c0 1.7 1.4 3.1 3.1 3.1h9.1c1.7 0 3.1-1.4 3.1-3.1v-7a3.2 3.2 0 00-3.1-3.1zM28.6 62.6h-9.1a3.1 3.1 0 00-3.1 3.1v7c0 1.7 1.4 3.1 3.1 3.1h9.1c1.7 0 3.1-1.4 3.1-3.1v-7c0-1.7-1.4-3.1-3.1-3.1zM75.5 62.6h-9.1a3.1 3.1 0 00-3.1 3.1v7c0 1.7 1.4 3.1 3.1 3.1h9.1c1.7 0 3.1-1.4 3.1-3.1v-7c0-1.7-1.4-3.1-3.1-3.1zM52.1 62.6H43a3.1 3.1 0 00-3.1 3.1v7c0 1.7 1.4 3.1 3.1 3.1h9.1c1.7 0 3.1-1.4 3.1-3.1v-7c-.1-1.7-1.5-3.1-3.1-3.1z"/></svg>