<svg xmlns="http://www.w3.org/2000/svg" viewBox="0 0 565 377"><path d="M407 178c26-10 31 25 14 32-24 9-36-23-14-32zm-263-59c-45 12-27 80 20 67 42-11 28-80-20-67zm-4-23c73-19 103 94 28 114-73 19-106-93-28-114zm223 42c27-13 33 23 18 30-24 11-37-21-18-30zm82 1c19-15 39 16 20 28-17 13-41-12-20-28zm-40-44c22-11 36 23 15 32-21 8-35-21-15-32zM277 71c33-8 40 39 12 46-33 7-41-39-12-46zm-97 213c27-6 100-2 131-2 45 0 77-9 112 23l72 63c32 27 68-16 69-45 12-61-53-275-94-305-34-24-65-23-101-6C257 64 204 1 153 0 73-2 55 86 34 147c-18 52-58 171-13 214 56 54 90-62 159-76v-1z" fill-rule="evenodd" clip-rule="evenodd"/></svg>