<svg xmlns="http://www.w3.org/2000/svg" viewBox="0 0 256 256"><path d="M127.779.003C60.42.003 5.24 51.85 0 117.734l68.724 28.365a36.084 36.084 0 0120.426-6.297c.682 0 1.356.019 2.02.055l30.566-44.228v-.619c0-26.613 21.69-48.27 48.353-48.27 26.662 0 48.352 21.657 48.352 48.27 0 26.612-21.69 48.278-48.352 48.278-.37 0-.73-.009-1.098-.018l-43.593 31.039c.028.576.046 1.15.046 1.716 0 19.986-16.283 36.241-36.294 36.241-17.566 0-32.263-12.522-35.584-29.095L4.41 162.882C19.633 216.61 69.083 256 127.779 256 198.597 256 256 198.686 256 128.001 256 57.308 198.597.003 127.779.003zM80.352 194.219l-15.749-6.497c2.787 5.804 7.621 10.659 14.033 13.325 13.857 5.767 29.836-.794 35.612-14.64a26.987 26.987 0 00.046-20.808c-2.768-6.717-7.999-11.956-14.706-14.748-6.67-2.765-13.811-2.665-20.085-.301l16.275 6.717c10.222 4.254 15.056 15.971 10.794 26.175-4.253 10.202-15.998 15.031-26.22 10.777zM202.309 95.01c0-17.732-14.457-32.17-32.217-32.17-17.769 0-32.226 14.438-32.226 32.17 0 17.733 14.457 32.162 32.226 32.162 17.76-.001 32.217-14.429 32.217-32.162zm-56.37-.055c0-13.343 10.84-24.157 24.2-24.157 13.368 0 24.208 10.814 24.208 24.157s-10.84 24.158-24.209 24.158c-13.359 0-24.2-10.815-24.2-24.157l.001-.001z" fill="#ddd"/></svg>